<svg id="Layer_1" xmlns="http://www.w3.org/2000/svg" viewBox="0 0 64.9 109"><style>.st0{fill:#fff}</style><title>Trizub</title><path class="st0" d="M64.8 7.9c-8.7 4.9-12.9 10.2-15.3 17.3-1.5 4.6-2.5 9.3-2.9 14.1-1.7 15.9-1.9 18-1.9 18 1.8-.2 3.6.4 5 1.5 1.1 1.1 1.7 2.6 1.7 4.2 0 2-1.2 3.8-3 4.7-1.3.6-2.8.9-4.2.9-1.2-1.8-8.6-14-8.7-27.5-.1-11.8.4-13.2.5-21 .1-5.6 1.6-12.8-2.8-18.9-.5-.8-.6-1.2-.8-1.2-.4.3-.7.7-.9 1.1-4.4 6.1-2.9 13.3-2.8 19 .2 7.7.6 9.2.5 21-.1 13.6-7.5 25.7-8.7 27.5-1.4 0-2.9-.3-4.2-.9-1.8-.9-2.9-2.7-3-4.7-.1-1.6.5-3.1 1.7-4.2 1.4-1.1 3.2-1.7 5-1.5 0 0-.1-2.1-1.9-18-.4-4.8-1.4-9.5-2.9-14.1C13 18.1 8.7 12.8 0 7.9V87l18.1.1c.7 3.3 1.9 6.5 3.6 9.5l.4.8c1.9 3 4.3 5.7 7 8 1.2 1 2.3 2.2 3.2 3.6 0-.1.1-.1.2 0 .9-1.3 2-2.5 3.2-3.6 2.7-2.3 5.1-5 7-8 .2-.3.3-.5.4-.8 1.6-3 2.8-6.2 3.6-9.5l18.1-.1V7.9zM5.3 19.3c0-.7 5.9 6.4 6.7 13.6l2.3 19.9c-2.9 1.4-5 4-5.8 7.1H5.3V19.3zm12.4 62.2H5.4l-.1-16h3.2c2.3 7.8 10.1 8.2 10.1 8.2-.6 2.5-.9 5.2-.9 7.8zm6.4-6.6c3.3.6 5.6 3.4 5.6 6.7H23c-.1-2.3.3-4.6 1.1-6.7zm5.8 23.7c-3.2-3.1-5.3-7.2-6.1-11.6h6.1v11.6zm2.5-24.3c-1.9-2.4-6.1-4.4-6.1-4.4 2.6-5.6 3.9-6.7 6.2-15.3 2.5 8.5 4.2 10.4 6.2 15.2-.2.1-4.6 2.3-6.3 4.5zm2.8 24.3V87h6c-1 6.3-6 11.6-6 11.6zm-.2-17s0-5.7 5.6-6.7c.9 2.1 1.3 4.4 1.2 6.7H35zm12.2 0c0-2.6-.4-5.3-1-7.8 0 0 8-.6 10.3-8.3h2.8v16.2l-12.1-.1zm9-21.7c-.5-2.1-1.6-3.9-3.2-5.3-.8-.7-1.6-1.3-2.5-1.8l2.2-20.1c.7-6.4 6.1-13.5 6.5-13.3l.2 40.5h-3.2z"/></svg>