<svg id="Layer_1" data-name="Layer 1" xmlns="http://www.w3.org/2000/svg" viewBox="0 0 393 404.24"><defs><style>.cls-1,.cls-2{fill:none;stroke:#fff;stroke-width:4.25px}.cls-1,.cls-2,.cls-6{stroke-miterlimit:22.93}.cls-1,.cls-3,.cls-4,.cls-5,.cls-6,.cls-7{fill-rule:evenodd}.cls-3{fill:#2e4a9d}.cls-4{fill:#1b2553}.cls-5{fill:#f5c619}.cls-6{fill:#fcee23;stroke:#231f20;stroke-width:.22px}.cls-7{fill:#2e368f}</style></defs><title>Logo_site</title><path class="cls-1" d="M356.18 115c-39.53 20.57-95.49 33.4-157.55 33.4S83.28 136.68 43.75 116.11m240.7 260.25c-15.84-21-48.32-35.33-85.83-35.33s-70 14.37-85.83 35.33"/><path class="cls-1" d="M203 27.08c71.61 25.39 123.37 98.7 123.37 185.2 0 85.93-51.09 158.86-122 184.7-1.91.06-3.82.1-5.74.1"/><path class="cls-1" d="M203.46 27.09C235.73 72.94 256 138.93 256 212.28c0 73.11-20.12 138.9-52.2 184.72-1.71 0-3.43.07-5.16.07M187.92 28.45C116.31 53.84 65.19 125.78 65.19 212.28c0 85.93 51.09 158.86 122 184.7"/><path class="cls-1" d="M187.59 27.95c-32.27 45.84-52 111-52 184.33 0 73.11 20.12 138.9 52.2 184.72"/><path class="cls-1" d="M284.45 48.11c-15.84 21-48.32 35.33-85.83 35.33s-69.2-13-85-34"/><path class="cls-2" d="M198.62 397.08V27.03"/><path class="cls-1" d="M356.18 309.46c-39.53-20.57-95.49-33.4-157.55-33.4s-118 12.84-157.56 33.41"/><path class="cls-2" d="M13.6 212.05h370.05"/><path class="cls-3" d="M199.95 118.15h-2.73l-2.49.99-5.6 4.98-1.12 2.24v2.49l-.75 2.36.75 4.73-1.25 2.24-2.61.5-1.62-1.87-2.61-1.12h-2.62l-5.35 1-2.61-.25-2.37 1.37-1.99-1.5-.99-2.36-4.36-2.74-5.47 5.23-2.24-1.37-1.62-1.87-2.61.5-2.62-.74-1.99-1.5-2.11 1.87-2.74.12-2.49.75-2.12 1.49-2.11-1.49-.38-2.36-5.1.37-1.99-1.62-.75-2.36-2.24-1.12-2.73-.5-2.24-1.25-2.62.38-2.74-.25-5.1-1.37-4.73-2.24-2.73.37h-5.48l-2.61-.87-13.19 1.74-2.49.75-.75 2.24-1.99 1.62-5.1 2.11-2.74-.37-2.74.37-1.99 1.62 1.87 3.61.62 3.61 2.24 5.23.62.99 3.36 3.36-.37 3.24 1.99 4.35-1.62 4.11-5.85 4.48-6.34 3.61-4.98 5.6-5.6 11.32-.62 4.23.87 3.86-3.36.5-1.62-.37-.13 1.99-3.73 8.83-1.99 6.85 4.85 2.36 3.74 2.74 2.86 2.49 1.24 3.36 2.37-.87h5.47l5.98.87 7.84.62 4.98-1.24 4.85-.25 3.73 2.86 3.24 1.62 5.22-3.36 5.23-1.37 5.6-.13 11.2-6.22 2.36.25 1.87-3.36 2.24-1.37 2.61.5 2.74-.25 4.98-1.74 5.35 1.62 2.37 1.24 6.1 4.85 2.48.63 5.23-.87 2.61.62 3.74 3.61 2.61-.63 1.37 2.24v4.73l-1.12 5.1 2.12 1.62 1.24 2.24 2.61.38.87 2.36-.62 2.61 2.24 4.48 4.61 2.37 1.24 2.11.5 2.37-.62 2.49 1.12 2.49-1.12 2.36-2.24 1.37-7.47-1.87-2.24 1.25-1.37-2.12-2.49 1.12-1.12 2.37-.99 7.71-2.37 1.12-1.74 1.99-.37 2.49-2.49 1.37-1 2.49-.25 2.49-1.74 1.87h-3.11l-.12 1.12 2.86-.38 4.1 5.35 3.49-.12 3.36-2.49 4.98-.75 2.86-1.24 2.86.25 1.74.99 1-.37-.62-4.85v-6.23l.62 1.37.25 3.11 1.61.75.13-2.36 1.99-.87.75-1.62 4.6-.13 1.62-1.74 1.87-3.48-.63-3.49-2.86-2.49-.87-2.11 1.24 1.37 2.74.49 1.25 2.62 1.12.25 3.73-5.48.5-2.61 2.11-.62 2.24-1.12 5.23-.88 3.86-1.99 1.87-1.49-.5 3.23 2.98-.99 2.49-1.12.87-2.24 1.37 2.99 2.24 2.73 1.99.5v1.5l-8.09-1.12-2.48 1.12 1.74.87 4.98.49.62 1-4.23 3.11.49 1.25 3.61-.38 1.87.63 1.99 1.99 5.35 1.99 7.34-1.75h2.12l.37-.87 2.99-.87.12 1.37 3.24 1.74 1.74-2.11 2.12 1.86.25 2.62 1.37.62-1.37.99-9.09 2.49-2.86 2.24-4.23 4.11-3.11 1.62-1.12 2.11.12.75h5.35l3.74 2.37 2.36 2.36 2.37-.25 2.11.62 1.62 3.61.37 3.11-.49 2.49v3.36l-1.5 2.37 3.86 3.23.87.25 5.35.5 3.73-2.37 2.12-.37.87-.99.5-1.62 1.49-2.37 2.24-.37-1.74-1 4.61-1.36 3.98.74 2.86-3.11 5.85-5.47 10.2 3.11 1.12-1.12 5.98-.25v-3.49l.37-2.36 1.37-1.25.5-2.61-3.74-.5-4.23 1-2.61 1.37-.75-1.74-1.37.24-3.73 4.24-3.48-2.74-.38 1.99-5.97-1.62-1 1.37-.74-2.86-.25-3.86-1.99-2.61-4.11.49.62-2.73-.74-.63-2.25 1-.74-.5 1.49-3.98h-1.74l-1.62-1.12-2.99-.62-.12 2.11-.87.87-1.12-1.37-.25-1.86-.75-1.74-.99-.63-1.37.38-1.62-1.99-1.49-1.12 5.85 1.86.74-.49.63-4.36 1.24 1.49.12 2.62.5.87h4.11l.87 1.12-.87 1.99.62.5 1.37-2.12 2.24-1.49.75 1.37-.38 1.12 1.75 3.6v1.25h1.61v-2.86l-.87-4.61 3.24-3.36 1.62-4.6h1.49l1.37 4.6-1.37 1.5-2.12 1.12-.87 1.74 2.37-1 2.61-3.61 1.74-3.36 1.25-.12 5.1-4.61 2.49-.24 3.48-1.12.38 1.61.99-1.49 7.34-3.48 3.74 2.24.99-3.61 6.1-2.37 2.49.25 3.11-3.11 4.36-1.12 7.59-1-.13-4.6-.25-2.61 2.24-4.36 5.11-1.86 2.98-4.36 1.87-1.49 4.6 2.36 2.62-.5 4.98 1.12 2.48-.99 2.12-6.97 1.12-4.98-2.24-1.24.62-2.37-.99-2.36-1.5-1.75.25-2.36 1.12-2.11 5.23-1.37-1.62-2-2.61-.49-1.5-1.99 5.11-1 2.61-4.48-2.61-6.97 2.49-1.12-2.24-1.37-2.62.13-2.74-.5-3.98-3.11h-2.61l-4.36-2.61-5.1.24-1.87-1.74-2.48-.99-2.62-.38-1.62-1.86-2.61-.25-.99 2.36-2.74.13-3.49-3.61-3.61-6.35-1.61-1.99-2.49-.75-4.73 2.24-7.97 2.12-2.48-1-2.62.75-3.73-3.24-2.62-.49-2.48.49-2.37 1.12-2.24-1.36-2.11-1.5-.87-2.24.87-2.24-2.49-7.96-3.36-3.49-1-2.11h-2.61l-2.49.87-5.23-1.12-2.49-1-1.99-1.49-1.49-4.36v-2.24l-1.12-2.11 2.61-.13 2.49-1.24v-2.61l-1.49-1.75-4.11-3.11v-2.36l-1.37-1.99-4.1-2.87-5.11 1-5.22-.62-5.23 1.37h-2.74l-5.47-1-2.24 1.37-.62 2.37-1.75 1.74-2.36.99-2.37-.62-1.99-1.49-6.47.12-2.49 1.25z"/><path class="cls-4" d="M200.25 116.45l2.45-1.22 9-.17 2.51 1.88h.11l.21-.09.31-.31.77-2.92 5.15-3.15 6.72 1.22h1.78l5.48-1.44 5.37.64 6.24-1.22 6.27 4.37 2.58 3.76v1.55l2.75 2.09 2.85 3.32v6.91l-4 2v.33l.82 2.4.46.34 1.61.64 3.67.79 2-.71h6.12l1.87 4 3.58 3.71 3.25 10.4-.69 1.77.59.41.11.07.72-.34 3.85-.77 4.6.88 2.84 2.41 1.78-.51 2.53 1 6.18-1.64 5.88-2.78 5.37 1.61 2.69 3.31 3.52 6.18.39.41.54-1.29 7.53.72 1.69 2 1.52.22 3.73 1.49 1.12 1 4.58-.22 4.45 2.67h2.91l4.32 3.37 1.19.22 3.45-.16L368 184l-6.29 2.83 1.91 5.08-3.74 6.41 4.58 5.64-9.29 2.43.3.34 1.83 4.36-.14.53 2.13 1.18-1.87 8.31-2.77 9.12-5.65 2.26-5.41-1.22-3.2.61-3.15-1.62-2.85 4.16-4.81 1.76-.88 1.71.14 1.49.23 8.67-11.22 1.47-2.95.76-3.73 3.72-3.51-.35-3.09 1.2-1.94 7-6.65-4-4.15 2-5.92 8.88-1.6-7-.91.09-5.1 4.6h-.32l-.81 1.56-3.52 4.86-3.31 1.39v5.83l1.4 1.84.2 3.1h.1l.83-4.42 5.9 4.63 2-2.28 6.27-1.14.38.89 4.36-1 9.09 1.21-1.63 8.56-1.31 1.19-.08.52v7.32l-8.45.35-1.77 1.77-10.3-3.14-3.89 3.65-2.39 2.6 2.36 1.35-4.25.71-.1.11-.27-.05-7.79 1.37-.14.23-.6 2-2.49 2.85-2.78.49-4.26 2.7-7.23-.67-2.15-.62-7.48-6.27 2.85-4.51v-2.53l.45-2.23-.17-1.82-.42-.93-3 .32-3.58-3.5-2.26-1.43H220l-1-5.83 2.44-4.61 3.75-1.95 3.94-3.82 3.12-2.44h-.74l-8.13 1.93-7.48-2.78-1.9-1.96-5.94.61-3-7.42.15-.11-2.89-1.44-1.84.61.22-1.42-.46-.23-3.47.58-1.94 1-.17.91-5.3 7.77v.09l-2.8 5.23-3.24 3.49-3.73.1-.31.67-1 .46-.32 6.1-1.47-.68.35 2.75-6.14 2.3-2.7-1.5-.81-.07-2.37 1-4.47.67-3.61 2.71-7.08.25-3.95-5.14-5.87.77 1.16-10.54h4.62l.11-1 1.8-4.51 2-1.08.24-1.62 3.18-3.63 1-.49.78-6 2.1-4.44 7.36-3.31 1.19 1.84.19-.1 6.11 1.53-.38-.83.75-3-.14-.69-.24-.41-4.75-2.44-3.58-7.17.4-1.68-1.42-.2-1.85-3.34-3.6-2.75 1.61-7.35v-1.31l-.94.22-4.59-4.44-.6-.14-5.25.88-4.28-1.07-6.52-5.19-1.63-.86-3.59-1.09-4.15 1.45-3.88.35-1.46-.28-2.64 4.75-3.86-.41-10.94 6.08-6.16.14-4.06 1.06-6.73 4.33-5.82-2.91-2.81-2.23-2.83.15-5.26 1.31-8.69-.69-5.8-.85H51.6l-5.71 2.1-2.37-6.39-1.88-1.63-3.27-2.4-7.8-3.8 3.09-10.61 3.54-8.39.4-6.37 3.81.88.74-5 6.16-12.47 5.84-6.57 6.71-3.82 4.65-3.56.5-1.26-1.73-3.78.27-2.35-2.22-2.22-1.06-1.7-2.57-6-.59-3.45-3.19-6.13 5.69-4.62 4.53-.62 2.16.24 3.43-1.42.52-.42L72.3 123l5-1.5 14.53-1.92 2.9 1h4.47l3.73-.51 5.54 2.63 4.36 1.17 1.86.17 3.56-.51 2.89 1.61 2.64.48 4.44 2.22.81 2.56 7.11-.52.41 2.61 2.27-.68 1.74-.08 3.62-3.2 4.18 3.14.85.24 4.06-.77 1.93 2.23 5.2-5 8.39 5.27.51 1.2.39-.23 3.39.32 5.15-1h3.91l2.21.95-.22-1.41.85-2.7V128l2-3.91 6.8-6 4-1.59h2.55zm1 4.35h-2.74l-2.49 1-5.6 5-1.09 2.2v2.49l-.75 2.36.75 4.73-1.24 2.24-2.61.5-1.62-1.87-2.61-1.12h-2.61l-5.35 1-2.61-.25-2.36 1.37-2-1.49-1-2.36-4.32-2.73-5.48 5.23-2.24-1.37-1.62-1.87-2.61.5-2.61-.75-2-1.49-2.15 1.88-2.74.12-2.49.75-2.06 1.48-2.12-1.49-.37-2.36-5.1.37-2-1.62-.75-2.36-2.24-1.12-2.74-.5-2.27-1.27-2.61.37-2.74-.25-5.1-1.37-4.73-2.24-2.74.37H94l-2.6-.88-13.2 1.78-2.49.75-.71 2.24-2 1.62-5.1 2.12-2.74-.37-2.74.37-2 1.62 1.87 3.61.62 3.61 2.24 5.23.62 1 3.36 3.36-.37 3.24 2 4.36-1.62 4.11-5.85 4.48-6.35 3.61-5 5.6-5.6 11.32-.62 4.23.87 3.86-3.36.5-1.62-.37-.12 2-3.73 8.84-2 6.84 4.85 2.36 3.73 2.74 2.86 2.49 1.24 3.36 2.36-.87h5.5l6 .87 7.84.62 5-1.24 4.85-.25 3.73 2.86 3.24 1.62 5.23-3.36 5.23-1.37 5.6-.12 11.2-6.22 2.36.25 1.87-3.36 2.24-1.37 2.61.5 2.74-.25 5-1.74 5.35 1.62 2.36 1.24 6.1 4.85 2.49.62 5.23-.87 2.61.62 3.73 3.61 2.61-.62 1.37 2.24v4.73l-1.12 5.1 2.12 1.62 1.24 2.24 2.61.37.87 2.36-.62 2.61 2.24 4.48 4.6 2.36 1.25 2.12.5 2.36-.62 2.49 1.12 2.49-1.19 2.28-2.24 1.37-7.47-1.87-2.24 1.24-1.37-2.12-2.49 1.12-1.08 2.42-1 7.72-2.39 1.12-1.74 2-.37 2.49-2.5 1.36-1 2.49-.25 2.49-1.75 1.86h-3.11l-.12 1.12 2.86-.37 4.11 5.35 3.48-.12 3.36-2.49 5-.75 2.86-1.24 2.86.25 1.74 1 1-.37-.62-4.85V277l.62 1.37.25 3.11 1.62.75.12-2.36 2-.87.75-1.62 4.6-.12 1.62-1.74 1.87-3.48-.62-3.48-2.88-2.56-.87-2.12 1.24 1.37 2.74.5 1.24 2.61 1.12.25 3.73-5.48.5-2.61 2.12-.62 2.24-1.12 5.23-.87 3.86-2 1.87-1.49-.5 3.24 3-1 2.49-1.12.87-2.24 1.37 3 2.24 2.74 2 .5v1.49l-8.09-1.12-2.49 1.12 1.74.87 5 .5.62 1-4.23 3.11.5 1.24 3.61-.37 1.87.62 2 2 5.35 2 7.34-1.74h2.12l.37-.87 3-.87.12 1.37 3.24 1.74 1.74-2.12 2.12 1.87.21 2.62 1.37.62-1.37 1-9.08 2.49-2.92 2.23-4.23 4.11-3.11 1.62-1.12 2.12.12.75H229l3.73 2.36 2.36 2.36 2.36-.25 2.12.62 1.62 3.61.37 3.11-.5 2.49v3.36l-1.45 2.4 3.86 3.24.87.25 5.35.5 3.73-2.36 2.12-.37.87-1 .5-1.62 1.49-2.36 2.24-.37-1.74-1 4.6-1.37 4 .75 2.86-3.11 5.85-5.48 10.2 3.11 1.12-1.12 6-.25v-3.48l.37-2.36 1.37-1.24.5-2.61-3.73-.5-4.23 1-2.61 1.37-.75-1.74-1.37.25-3.73 4.23-3.48-2.74-.37 2-6-1.62-1 1.37-.75-2.86-.25-3.86-2-2.61-4.11.5.62-2.74-.75-.62-2.24 1-.75-.5 1.49-4H258l-1.62-1.12-3-.62-.08 2.06-.87.87-1.12-1.37-.25-1.87-.75-1.74-1-.62-1.37.37-1.62-2-1.49-1.12 5.85 1.87.75-.5.62-4.36 1.25 1.47.12 2.61.5.87H258l.87 1.12-.87 2 .62.5L260 271l2.24-1.49.75 1.37-.36 1.12 1.74 3.61v1.24H266V274l-.87-4.6 3.24-3.36 1.62-4.6h1.49l1.37 4.6-1.37 1.49-2.12 1.12-.87 1.74 2.36-1 2.61-3.61 1.74-3.36 1.24-.12 5.1-4.6 2.49-.25 3.48-1.12.37 1.62 1-1.49 7.34-3.48 3.78 2.22 1-3.61 6.1-2.36 2.49.25 3.11-3.11 4.36-1.12 7.59-1-.12-4.6-.3-2.65 2.24-4.36 5.1-1.87 3-4.36 1.87-1.49 4.6 2.36 2.61-.5 5 1.12 2.49-1 2.12-7 1.12-5-2.24-1.24.62-2.36-1-2.36-1.49-1.74.25-2.36 1.12-2.12 5.23-1.37-1.62-2-2.61-.5-1.49-2 5.1-1 2.61-4.48-2.61-7 2.49-1.12-2.28-1.25-2.61.12-2.74-.5-4-3.11h-2.61l-4.36-2.61-5.1.25-1.87-1.74-2.49-1-2.61-.37-1.62-1.87-2.61-.25-1 2.36-2.74.12-3.48-3.61-3.62-6.3-1.62-2-2.49-.75-4.69 2.26-8 2.12-2.49-1-2.61.75-3.73-3.24-2.61-.5-2.49.5-2.36 1.12-2.24-1.37-2.12-1.49-.87-2.24.87-2.24-2.49-8-3.33-3.41-1-2.12h-2.61l-2.49.87-5.23-1.12-2.49-1-2-1.49-1.49-4.36v-2.28l-1.12-2.12 2.61-.12 2.49-1.24v-2.62l-1.49-1.74-4.11-3.11v-2.36l-1.37-2-4.11-2.86-5.1 1-5.23-.62-5.23 1.37H227l-5.48-1-2.24 1.37-.62 2.36-1.66 1.74-2.36 1-2.36-.62-2-1.49-6.47.12z"/><path class="cls-5" d="M198.93 113.79l2.45-1.22 9-.17 2.51 1.88h.11l.21-.09.31-.31.77-2.92 5.15-3.15 6.72 1.22h1.78l5.48-1.44 5.37.64 6.24-1.22 6.27 4.37 2.58 3.76v1.55l2.75 2.09 2.85 3.32v6.9l-4 2v.32l.82 2.4.46.34 1.61.64 3.67.79 2-.71h6.12l1.87 4 3.57 3.71 3.25 10.4-.69 1.77.59.41.11.07.72-.34 3.85-.77 4.6.88 2.84 2.46 1.78-.51 2.53 1 6.18-1.64 5.88-2.78 5.37 1.61 2.69 3.31 3.52 6.18.39.41.54-1.29 7.53.72 1.69 2 1.52.22 3.73 1.49 1.12 1 4.58-.22 4.45 2.67h2.91l4.32 3.37 1.19.22 3.45-.16 10.42 6.36-6.29 2.83 1.91 5.08-3.74 6.41 4.58 5.64-9.29 2.43.3.34 1.83 4.36-.14.53 2.13 1.18-1.87 8.31-2.77 9.12-5.68 2.27-5.41-1.22-3.2.61-3.15-1.62-2.87 4.16-4.81 1.76-.88 1.71.14 1.49.23 8.67-11.22 1.47-2.95.76-3.73 3.73-3.51-.35-3.09 1.2-1.94 7-6.65-4-4.15 2-5.92 8.88-1.61-7-.91.09-5.1 4.6h-.32l-.81 1.55-3.52 4.86-3.25 1.49v5.82l1.4 1.84.2 3.1h.1l.83-4.42 5.9 4.63 2-2.28 6.27-1.14.38.89 4.36-1 9.09 1.21-1.63 8.56-1.31 1.19-.08.52v7.32l-8.45.35-1.76 1.74-10.3-3.11-3.89 3.65-2.39 2.6 2.36 1.35-4.25.71-.1.11-.27-.05-7.75 1.29-.14.23-.6 2-2.49 2.85-2.78.49-4.26 2.7-7.23-.67-2.15-.62-7.48-6.27 2.85-4.51v-2.53l.45-2.23-.21-1.76-.42-.93-3 .32-3.49-3.49-2.26-1.43h-7.78l-1-5.83 2.44-4.61 3.75-1.95 3.94-3.82 3.12-2.44h-.77l-8.13 1.93-7.48-2.78-1.94-1.94-5.94.61-3-7.42.15-.11-2.86-1.54-1.84.61.22-1.42-.46-.23-3.47.58-1.94 1-.17.91-5.3 7.77v.09l-2.85 5.31-3.19 3.45-3.73.1-.31.66-1 .46-.32 6.1-1.47-.68.35 2.75-6.14 2.3-2.74-1.56-.81-.07-2.37 1-4.47.67-3.57 2.65-7.08.25-3.95-5.14-5.87.77 1.17-10.51h4.62l.11-1 1.8-4.51 2-1.08.24-1.62 3.18-3.63 1-.49.78-6 2.1-4.44 7.36-3.31 1.19 1.84.19-.1 6.11 1.53-.38-.83.75-3-.14-.69-.24-.41-4.75-2.44-3.61-7.18.4-1.68-1.42-.2-1.85-3.38-3.6-2.75 1.61-7.35v-1.31l-.94.22-4.59-4.44-.6-.14-5.25.88-4.28-1.07-6.48-5.15-1.63-.86-3.59-1.09-4.15 1.45-3.88.35-1.46-.28-2.64 4.75-3.86-.41-10.94 6.08-6.16.14-4.06 1.06-6.73 4.33-5.9-2.9-2.79-2.14-2.83.15-5.26 1.31-8.69-.69-5.8-.85h-4.36l-5.71 2.1-2.37-6.39-1.89-1.64L37 217l-7.8-3.8 3.09-10.61 3.54-8.39.4-6.37 3.81.88.74-5L47 171.19l5.84-6.57 6.71-3.82 4.65-3.56.5-1.26-1.7-3.78.27-2.35-2.27-2.22-1.06-1.7-2.57-6-.6-3.45-3.18-6.16 5.69-4.62 4.53-.62 2.19.29 3.4-1.37.52-.42 1.08-3.23 5-1.5 14.53-1.92 2.9 1h4.47l3.73-.51 5.54 2.63 4.36 1.17 1.86.17 3.56-.51 2.89 1.61 2.64.48 4.44 2.22.81 2.56 7.11-.52.41 2.61 2.27-.68 1.74-.08 3.62-3.2L147 129l.85.24 4.06-.77 1.93 2.23 5.2-5 8.39 5.27.51 1.2.39-.23 3.39.32 5.15-1h3.91l2.21.95-.22-1.41.85-2.7v-2.85l2-3.91 6.8-6 4-1.59h2.55zm1 4.35h-2.74l-2.49 1-5.6 5-1.1 2.22v2.49l-.75 2.36.75 4.73-1.24 2.24-2.61.5-1.62-1.87-2.61-1.12h-2.62l-5.35 1-2.61-.25-2.34 1.37-2-1.49-1-2.32-4.36-2.74-5.48 5.23-2.24-1.37-1.62-1.87-2.61.5-2.61-.75-2-1.49-2.08 1.82-2.74.12-2.49.75-2.12 1.49-2.12-1.49-.37-2.36-5.1.37-2-1.62-.75-2.36-2.24-1.12-2.74-.5-2.24-1.24-2.61.37-2.74-.25-5.1-1.37-4.73-2.24-2.74.37h-5.49l-2.61-.87-13.19 1.74-2.49.75-.75 2.24-2 1.62-5.1 2.12-2.74-.37-2.74.37-2 1.62 1.87 3.61.62 3.61 2.24 5.23.62 1 3.36 3.36-.37 3.24 2 4.36-1.61 4.12-5.85 4.48L55.6 168l-5 5.6L45 185l-.6 4.2.87 3.86-3.36.5-1.62-.37-.12 2-3.74 8.81-2 6.84 4.85 2.36L43 216l2.86 2.49 1.24 3.36 2.36-.87H55l6 .87 7.84.62 5-1.24 4.85-.25 3.73 2.86 3.24 1.62 5.23-3.36 5.11-1.41 5.6-.12 11.2-6.22 2.36.25 1.87-3.36 2.24-1.37 2.61.5 2.74-.25 5-1.74L135 210l2.36 1.24 6.1 4.85 2.49.62 5.23-.87 2.61.62 3.73 3.61 2.61-.62 1.37 2.24v4.73l-1.12 5.1 2.12 1.62 1.24 2.24 2.61.37.87 2.36-.62 2.61 2.24 4.48 4.6 2.36 1.24 2.12.5 2.36-.62 2.49 1.12 2.49-1.12 2.36-2.24 1.37-7.47-1.87-2.24 1.24-1.36-2.12-2.49 1.12-1.12 2.36-1 7.72-2.36 1.12-1.74 2-.37 2.49-2.49 1.37-1 2.49-.25 2.49-1.74 1.84h-3.11l-.12 1.12 2.86-.37 4.11 5.35 3.48-.12 3.36-2.49 5-.75 2.86-1.24 2.86.25 1.74 1 1-.37-.62-4.85v-6.22l.62 1.37.27 3.12 1.62.75.12-2.36 2-.87.75-1.62 4.6-.12 1.62-1.74 1.87-3.48-.62-3.48-2.96-2.51-.87-2.12 1.24 1.37 2.74.5 1.24 2.61 1.12.25 3.73-5.48.5-2.61 2.12-.62 2.24-1.12 5.23-.87 3.86-2 1.87-1.49-.5 3.24 3-1 2.49-1.12.87-2.24 1.37 3 2.24 2.74 2 .5v1.49l-8.09-1.12-2.49 1.12 1.74.87 5 .5.62 1-4.27 3.1.5 1.24 3.61-.37 1.87.62 2 2 5.35 2 7.34-1.74h2.12l.37-.87 3-.87.12 1.37 3.24 1.74 1.74-2.12 2.12 1.87.25 2.61 1.37.65-1.37 1-9.08 2.49-2.86 2.24-4.23 4.11-3.11 1.62-1.12 2.12.12.75h5.35l3.73 2.36 2.37 2.31 2.36-.25 2.12.62 1.62 3.63.37 3.11-.5 2.49v3.36l-1.49 2.36 3.86 3.24.87.25 5.35.5 3.73-2.36 2.12-.37.87-1 .5-1.62 1.49-2.36 2.24-.37-1.74-1 4.6-1.37 4 .75 2.86-3.11 5.85-5.48 10.2 3.11 1.12-1.12 6-.25v-3.48l.37-2.36 1.37-1.24.5-2.61-3.73-.5-4.23 1-2.61 1.37-.75-1.74-1.37.25-3.75 4.19-3.48-2.74-.37 2-6-1.62-1 1.37-.75-2.86-.25-3.86-2-2.61-4.11.5.62-2.74-.75-.62-2.24 1-.75-.5 1.49-4h-1.71l-1.62-1.12-3-.62-.08 2.11-.87.87-1.13-1.36-.27-1.84-.73-1.77-1-.62-1.37.37L245 266l-1.49-1.12 5.85 1.87.75-.5.62-4.36 1.24 1.49.12 2.61.5.87h4.11l.87 1.12-.87 2 .62.5 1.37-2.12 2.24-1.49.75 1.37-.37 1.12L263 273v1.24h1.62v-2.86l-.87-4.6 3.24-3.36 1.62-4.6h1.49l1.37 4.6-1.37 1.49L268 266l-.87 1.74 2.36-1 2.61-3.61 1.74-3.36 1.24-.12 5.1-4.6 2.49-.25 3.48-1.12.37 1.62 1-1.49 7.34-3.48 3.73 2.24 1-3.61 6.1-2.36 2.49.25 3.11-3.11 4.36-1.12 7.59-1-.12-4.6-.25-2.61 2.24-4.36 5.1-1.87 3-4.36 1.87-1.49 4.6 2.36 2.61-.5 5 1.12 2.49-1 2.12-7 1.12-5-2.24-1.24.62-2.36-1-2.36-1.49-1.74.25-2.36 1.12-2.12 5.23-1.37-1.62-2-2.61-.5-1.49-2 5.1-1 2.61-4.48-2.61-7 2.49-1.12-2.24-1.37-2.61.12-2.74-.5-4-3.11h-2.61l-4.36-2.61-5.1.25-1.87-1.74-2.49-1-2.61-.37-1.62-1.87-2.61-.25-1 2.36-2.74.12-3.48-3.61-3.61-6.35-1.62-2-2.49-.75-4.73 2.24-8 2.12-2.49-1-2.61.75-3.68-3.09-2.61-.5-2.46.5-2.36 1.12-2.24-1.37-2.12-1.49-.91-2.26.87-2.24-2.49-8-3.36-3.48-1-2.12h-2.61l-2.49.87-5.23-1.12-2.49-1-2-1.49-1.49-4.36v-2.24l-1.08-2.09 2.61-.12 2.49-1.24v-2.61l-1.51-1.76-4.11-3.11v-2.36l-1.37-2-4.11-2.85-5.1 1-5.23-.62-5.23 1.37h-2.74l-5.48-1-2.22 1.36-.62 2.36-1.74 1.74-2.36 1-2.36-.62-2-1.49-6.47.12z"/><path class="cls-5" d="M103.83 117.51l59.87 87.62 34.88 7.07-94.75-94.69zm86.85 59.36l7.9 35.33-94.75-94.69 86.85 59.36zM293.3 306.99l-94.72-94.79 34.86 7.56 59.86 87.23zm-87.5-60.27l-7.22-34.52 94.72 94.79-87.5-60.27zm-102.1 60.27l87.62-59.87 7.06-34.88-94.68 94.75zm59.36-86.85l35.32-7.9-94.68 94.75 59.36-86.85z"/><path class="cls-5" d="M293.17 117.52l-94.79 94.72 7.57-34.86 87.22-59.86zm-60.26 87.5l-34.53 7.22 94.79-94.72-60.26 87.5z"/><path class="cls-5" d="M198.61 55.45l-21.17 112.51 21.22 45.34-.05-157.85z"/><path class="cls-5" d="M198.66 213.3l-.05-157.85 21.19 112.66-21.14 45.19z"/><path class="cls-5" d="M198.61 369.02l-21.17-112.51 21.22-45.33-.05 157.84z"/><path class="cls-5" d="M198.66 211.18l-.05 157.84 21.19-112.66-21.14-45.18z"/><path class="cls-5" d="M41.83 212.24l112.51 21.17 45.34-21.22-157.85.05zm157.85-.05l-157.85.05 112.66-21.18 45.19 21.13z"/><path class="cls-5" d="M355.4 212.24l-112.5 21.17-45.34-21.22 157.84.05zm-157.84-.05l157.84.05-112.66-21.18-45.18 21.13z"/><path class="cls-6" d="M218.11 215.5a8.27 8.27 0 0 0-2.6-4.4 10.81 10.81 0 0 0-2.06-1.49l1.8-16.64c.57-5.31 5.06-11.17 5.33-11l.19 33.47zm-39.37-.02a9.3 9.3 0 0 1 4.82-5.9l-1.92-16.47c-.7-6-5.57-11.8-5.57-11.22v33.59h2.68zm12.59 22.37h5v9.58a17.18 17.18 0 0 1-5-9.58zm14.42.04h-4.94v9.58s4.12-4.38 4.94-9.58zm-14.13-10.04a13.53 13.53 0 0 0-1 5.53h5.63a5.62 5.62 0 0 0-4.63-5.53zm13.64-.02a13.27 13.27 0 0 1 1 5.55h-5.64s.01-4.73 4.64-5.55zm-6.82-.45a15.72 15.72 0 0 0-5.08-3.62c2.14-4.62 3.25-5.54 5.1-12.61 2.08 7.05 3.44 8.6 5.14 12.57.02-.06-3.7 1.78-5.16 3.66zm22.29-7.38v13.36h-10.07a27.91 27.91 0 0 0-.84-6.47s6.62-.47 8.54-6.87h2.35zm-44.63.08l.06 13.29h10.13a25.65 25.65 0 0 1 .8-6.53 9.47 9.47 0 0 1-8.37-6.74h-2.62z"/><path class="cls-6" d="M218.11 215.5a8.27 8.27 0 0 0-2.6-4.4 10.81 10.81 0 0 0-2.06-1.49l1.8-16.64c.57-5.31 5.06-11.17 5.33-11l.19 33.47zm-39.37-.02a9.3 9.3 0 0 1 4.82-5.9l-1.92-16.47c-.7-6-5.57-11.8-5.57-11.22v33.59h2.68zm12.59 22.37h5v9.58a17.18 17.18 0 0 1-5-9.58zm14.42.04h-4.94v9.58s4.12-4.38 4.94-9.58zm-14.13-10.04a13.53 13.53 0 0 0-1 5.53h5.63a5.62 5.62 0 0 0-4.63-5.53zm13.64-.02a13.27 13.27 0 0 1 1 5.55h-5.64s.01-4.73 4.64-5.55zm-6.82-.45a15.72 15.72 0 0 0-5.08-3.62c2.14-4.62 3.25-5.54 5.1-12.61 2.08 7.05 3.44 8.6 5.14 12.57.02-.06-3.7 1.78-5.16 3.66zm22.29-7.38v13.36h-10.07a27.91 27.91 0 0 0-.84-6.47s6.62-.47 8.54-6.87h2.35zm-44.63.08l.06 13.29h10.13a25.65 25.65 0 0 1 .8-6.53 9.47 9.47 0 0 1-8.37-6.74h-2.62z"/><path class="cls-5" d="M244.7 150.68v92.76c0 7.7-3.58 13.74-10 17.78l-36 16.74-35.07-16.19c-1.89-.88-11.21-6.59-11.07-18.3 0-32.06.05-60.86.06-92.8h92.1z"/><path class="cls-7" d="M156 154.06h85.3v90.24q-.1 9.56-8.8 14.33L198.68 274l-33.47-15.16c-1.57-.91-9.21-4.54-9.21-14.56v-90.22z"/><path class="cls-5" d="M210.25 227a11.58 11.58 0 0 0 4.2-.91 5.27 5.27 0 0 0 3-4.67 5.65 5.65 0 0 0-1.66-4.21 7 7 0 0 0-5-1.5s.14-2.11 1.86-18a59.91 59.91 0 0 1 2.92-14.11c2.37-7.06 6.59-12.41 15.29-17.29v79.08l-18.08.13a36.7 36.7 0 0 1-3.57 9.49l-.43.77a33.42 33.42 0 0 1-7 8 16.78 16.78 0 0 0-3.21 3.58 1.84 1.84 0 0 0-.1-.22 1.79 1.79 0 0 0-.1.22 16.76 16.76 0 0 0-3.21-3.57 33.44 33.44 0 0 1-7-8l-.43-.77a36.71 36.71 0 0 1-3.57-9.49l-18.08-.13v-79.08c8.7 4.88 12.92 10.23 15.29 17.29a60 60 0 0 1 2.92 14.11c1.72 15.92 1.86 18 1.86 18a7 7 0 0 0-5 1.5 5.25 5.25 0 0 0-1.66 4.21 5.58 5.58 0 0 0 3 4.67 11.58 11.58 0 0 0 4.2.91c1.19-1.8 8.59-14 8.66-27.52.06-11.8-.37-13.24-.54-21-.12-5.64-1.57-12.83 2.81-18.91a3.24 3.24 0 0 1 .88-1.14 3.24 3.24 0 0 1 .88 1.14c4.39 6.08 2.93 13.27 2.81 18.91-.16 7.72-.6 9.16-.54 21 .01 13.51 7.41 25.67 8.6 27.51z"/><path class="cls-7" d="M222.21 218.27a10 10 0 0 0-3.15-5.33 13.08 13.08 0 0 0-2.5-1.81l2.18-20.13c.69-6.42 6.12-13.52 6.45-13.27l.23 40.5zm-47.65-.03a11.25 11.25 0 0 1 5.83-7.13l-2.33-19.93c-.84-7.22-6.74-14.27-6.74-13.58v40.64h3.24zm15.24 27.07h6.08v11.59a20.79 20.79 0 0 1-6.08-11.59zm17.45.06h-6v11.59s5.01-5.3 6-11.59zm-17.1-12.15a16.37 16.37 0 0 0-1.17 6.69h6.81a6.8 6.8 0 0 0-5.64-6.69zm16.51-.03a16.06 16.06 0 0 1 1.23 6.71h-6.83s-.06-5.72 5.6-6.71zm-8.25-.54c-1.86-2.41-6.06-4.38-6.15-4.38 2.58-5.59 3.94-6.71 6.17-15.26 2.52 8.53 4.17 10.4 6.22 15.21.01-.07-4.48 2.15-6.24 4.43zm26.96-8.88v16.17h-12.18a33.77 33.77 0 0 0-1-7.83s8-.57 10.34-8.31h2.84zm-54 .04l.08 16.08h12.26a31 31 0 0 1 1-7.9s-7.84-.33-10.13-8.16h-3.17z"/><path class="cls-5" d="M318.17 348.07c-.47.35-9.57 8.05-10 8.4-97.36 70.92-219.49 36.72-262.5-77l20.47-6.68-47.43-31.66L0 295l22-6.28c50.71 125.65 212.48 151.9 302.66 63.64z"/><path class="cls-5" d="M22.35 246.81c-.11-1.08-2.19-13.6-2.28-14.67C9.51 109.48 104.64 22.1 225.27 47L220 67.82l52.09-23.09L236.6.13l-6.48 21.95C95.85-2.52-13.56 122.1 15 246.43l1.22 6.09z"/><path class="cls-5" d="M261.79 45.82c.35.17 16.17 6 16.52 6.22 102 50.48 130.52 167.91 57.39 259.9l-16.22-14.16-2.92 56.91 55.81-11.5-16.66-15.69C435 223.07 379.64 76.35 265.48 37.82z"/></svg>